<?xml version="1.0" standalone="no"?>
<!DOCTYPE svg PUBLIC "-//W3C//DTD SVG 20010904//EN"
 "http://www.w3.org/TR/2001/REC-SVG-20010904/DTD/svg10.dtd">
<svg version="1.0" xmlns="http://www.w3.org/2000/svg"
 width="400.000000pt" height="400.000000pt" viewBox="0 0 400.000000 400.000000"
 preserveAspectRatio="xMidYMid meet">
<metadata>
Created by potrace 1.14, written by Peter Selinger 2001-2017
</metadata>
<g transform="translate(0.000000,400.000000) scale(0.100000,-0.100000)"
fill="#000000" stroke="none">
<path d="M0 2000 l0 -2000 2000 0 2000 0 0 2000 0 2000 -2000 0 -2000 0 0
-2000z m3230 888 c0 -57 -40 -139 -81 -170 -61 -46 -95 -57 -210 -68 -147 -15
-191 -25 -239 -55 -31 -20 -42 -35 -56 -80 l-18 -55 -73 0 c-73 0 -73 0 -86
33 -21 48 -83 119 -127 143 -52 29 -141 38 -221 24 -64 -12 -108 -37 -157 -89
-32 -35 -83 -127 -92 -167 l-8 -34 474 0 474 0 0 -60 0 -59 -87 -3 -88 -3 -7
-50 c-6 -53 -25 -110 -52 -160 -9 -16 -16 -35 -16 -41 0 -17 -126 -134 -144
-134 -28 0 -17 -24 23 -51 21 -15 56 -55 77 -90 38 -62 39 -67 39 -154 0 -75
-4 -98 -23 -135 -71 -135 -190 -190 -383 -177 -102 8 -147 21 -217 67 -44 28
-142 137 -142 158 0 4 -6 18 -13 32 -20 38 -54 130 -69 185 -9 36 -13 124 -12
325 l0 275 31 85 c17 47 38 105 47 129 23 59 88 152 135 189 83 66 226 105
336 91 102 -14 165 -46 241 -124 70 -72 72 -73 77 -46 3 16 26 44 55 68 55 47
113 64 274 83 147 18 196 47 228 133 9 25 14 27 60 27 l50 0 0 -42z m-1950
-538 c70 -36 109 -69 138 -119 l27 -46 5 -380 c4 -282 8 -386 18 -402 15 -28
43 -43 76 -43 25 0 26 -3 26 -56 l0 -57 -65 6 c-97 9 -139 36 -170 110 -12 28
-15 79 -15 232 0 121 -4 195 -10 195 -5 0 -29 -8 -52 -17 -56 -23 -174 -23
-254 1 -88 26 -159 93 -185 176 -22 72 -23 123 -5 202 25 104 95 172 226 222
8 3 56 4 105 3 71 -3 100 -8 135 -27z"/>
<path d="M1846 2241 c-5 -8 -26 -250 -26 -304 l0 -28 213 3 c209 3 213 3 274
32 40 18 72 42 90 65 15 20 30 38 35 41 16 12 46 97 51 148 l6 52 -319 0
c-175 0 -321 -4 -324 -9z"/>
<path d="M1840 1776 c0 -27 30 -161 45 -198 38 -97 143 -187 242 -208 111 -24
249 33 272 111 26 86 6 186 -46 232 -20 18 -42 38 -49 45 -23 22 -112 32 -290
32 -145 0 -174 -2 -174 -14z"/>
<path d="M1057 2240 c-54 -21 -69 -35 -97 -95 -47 -97 0 -224 98 -261 63 -25
158 -15 217 22 l45 29 0 93 c0 130 -31 187 -117 218 -52 18 -89 17 -146 -6z"/>
</g>
</svg>
